<svg xmlns="http://www.w3.org/2000/svg" width="25.102" height="25.102" viewBox="0 0 25.102 25.102">
  <path id="Icon_awesome-arrow-alt-circle-left" data-name="Icon awesome-arrow-alt-circle-left" d="M13.113,25.664A12.551,12.551,0,1,1,25.664,13.113,12.549,12.549,0,0,1,13.113,25.664Zm5.871-14.778H13.113V7.3a.608.608,0,0,0-1.037-.43L6.291,12.683a.6.6,0,0,0,0,.855l5.785,5.815a.607.607,0,0,0,1.037-.43V15.34h5.871a.609.609,0,0,0,.607-.607V11.494A.609.609,0,0,0,18.984,10.887Z" transform="translate(-0.563 -0.563)" fill="#36c"/>
</svg>
