<svg xmlns="http://www.w3.org/2000/svg" width="26" height="25.742" viewBox="0 0 26 25.742">
  <path id="Icon_awesome-link" data-name="Icon awesome-link" d="M16.586,9.321A7.584,7.584,0,0,1,16.6,20.11l-.018.019-3.412,3.379a7.782,7.782,0,0,1-10.916,0,7.6,7.6,0,0,1,0-10.807l1.884-1.866a.813.813,0,0,1,1.386.533,9.182,9.182,0,0,0,.492,2.651.8.8,0,0,1-.192.835l-.665.658A3.624,3.624,0,0,0,5.1,20.637a3.686,3.686,0,0,0,5.2.026l3.412-3.378a3.594,3.594,0,0,0,0-5.12,3.8,3.8,0,0,0-.525-.431.8.8,0,0,1-.353-.634,1.992,1.992,0,0,1,.594-1.5L14.5,8.543a.822.822,0,0,1,1.045-.087,7.725,7.725,0,0,1,1.042.865Zm7.157-7.086a7.782,7.782,0,0,0-10.916,0L9.414,5.613,9.4,5.632a7.584,7.584,0,0,0,.018,10.789,7.724,7.724,0,0,0,1.042.865A.822.822,0,0,0,11.5,17.2l1.069-1.059a1.992,1.992,0,0,0,.594-1.5.8.8,0,0,0-.353-.634,3.8,3.8,0,0,1-.525-.431,3.594,3.594,0,0,1,0-5.12L15.7,5.079a3.686,3.686,0,0,1,5.2.026,3.624,3.624,0,0,1-.059,5.126l-.665.658a.8.8,0,0,0-.192.835,9.182,9.182,0,0,1,.492,2.651.813.813,0,0,0,1.386.533l1.884-1.866a7.6,7.6,0,0,0,0-10.807Z" transform="translate(0 0)" fill="#36c"/>
</svg>
